<svg width="24" height="24" viewBox="0 0 24 24" fill="none" xmlns="http://www.w3.org/2000/svg">
<path d="M11.6667 0C5.215 0 0 5.215 0 11.6667C0 18.1183 5.215 23.3333 11.6667 23.3333C18.1183 23.3333 23.3333 18.1183 23.3333 11.6667C23.3333 5.215 18.1183 0 11.6667 0ZM16.6833 16.6833C16.2283 17.1383 15.4933 17.1383 15.0383 16.6833L11.6667 13.3117L8.295 16.6833C7.84 17.1383 7.105 17.1383 6.65 16.6833C6.195 16.2283 6.195 15.4933 6.65 15.0383L10.0217 11.6667L6.65 8.295C6.195 7.84 6.195 7.105 6.65 6.65C7.105 6.195 7.84 6.195 8.295 6.65L11.6667 10.0217L15.0383 6.65C15.4933 6.195 16.2283 6.195 16.6833 6.65C17.1383 7.105 17.1383 7.84 16.6833 8.295L13.3117 11.6667L16.6833 15.0383C17.1267 15.4817 17.1267 16.2283 16.6833 16.6833Z" fill="#3A4B4C"/>
</svg>
