<svg width="22" height="23" viewBox="0 0 22 23" fill="none" xmlns="http://www.w3.org/2000/svg">
<path d="M11 0C9.79134 0 8.60982 0.354981 7.60485 1.02005C6.59988 1.68512 5.81661 2.63042 5.35407 3.73639C4.89153 4.84236 4.77051 6.05935 5.00631 7.23344C5.24211 8.40754 5.82414 9.48601 6.67879 10.3325C7.53345 11.179 8.62234 11.7554 9.80778 11.989C10.9932 12.2225 12.222 12.1026 13.3386 11.6445C14.4553 11.1864 15.4097 10.4106 16.0812 9.41529C16.7527 8.41994 17.1111 7.24973 17.1111 6.05263C17.1111 4.44737 16.4673 2.90786 15.3212 1.77277C14.1752 0.637686 12.6208 0 11 0ZM11 9.68421C10.2748 9.68421 9.56589 9.47122 8.96291 9.07218C8.35993 8.67314 7.88996 8.10596 7.61244 7.44238C7.33492 6.77879 7.26231 6.0486 7.40379 5.34415C7.54527 4.63969 7.89448 3.9926 8.40727 3.48472C8.92007 2.97683 9.57341 2.63096 10.2847 2.49083C10.9959 2.35071 11.7332 2.42262 12.4032 2.69749C13.0732 2.97236 13.6458 3.43782 14.0487 4.03503C14.4516 4.63224 14.6667 5.33437 14.6667 6.05263C14.6667 7.01579 14.2804 7.93949 13.5927 8.62055C12.9051 9.3016 11.9725 9.68421 11 9.68421ZM22 23V21.7895C22 19.5421 21.0986 17.3868 19.4941 15.7977C17.8897 14.2086 15.7135 13.3158 13.4444 13.3158H8.55556C6.28648 13.3158 4.11034 14.2086 2.50586 15.7977C0.901386 17.3868 0 19.5421 0 21.7895V23H2.44444V21.7895C2.44444 20.1842 3.08829 18.6447 4.23435 17.5096C5.3804 16.3745 6.93479 15.7368 8.55556 15.7368H13.4444C15.0652 15.7368 16.6196 16.3745 17.7657 17.5096C18.9117 18.6447 19.5556 20.1842 19.5556 21.7895V23H22Z" fill="black"/>
</svg>
