<svg width="19" height="19" viewBox="0 0 19 19" fill="none" xmlns="http://www.w3.org/2000/svg">
<path d="M8.26309 10.9121L8.26237 10.9052L8.26242 10.9052L7.76707 5.4686C7.74509 5.22777 7.77357 4.985 7.85071 4.7558C7.92784 4.5266 8.05193 4.316 8.21505 4.13747C8.37817 3.95893 8.57673 3.81638 8.79806 3.71892C9.01929 3.6215 9.25839 3.57126 9.50012 3.57143C9.50022 3.57143 9.50033 3.57143 9.50043 3.57143L9.5 4.07143C9.67219 4.07147 9.84248 4.1074 10 4.17692C10.1575 4.24645 10.2988 4.34804 10.4149 4.47523C10.531 4.60241 10.6193 4.75239 10.6742 4.9156C10.729 5.07881 10.7493 5.25167 10.7336 5.42314L8.26309 10.9121ZM8.26309 10.9121C8.29521 11.2178 8.43937 11.5007 8.66778 11.7064C8.89618 11.9121 9.19265 12.0259 9.5 12.0259C9.80735 12.0259 10.1038 11.9121 10.3322 11.7064C10.5606 11.5007 10.7048 11.2178 10.7369 10.9121L10.737 10.9121L10.7376 10.9051L11.2316 5.4686L8.26309 10.9121ZM9.5 0.5C11.8869 0.5 14.1761 1.44821 15.864 3.13604C17.5518 4.82387 18.5 7.11305 18.5 9.5C18.5 11.8869 17.5518 14.1761 15.864 15.864C14.1761 17.5518 11.8869 18.5 9.5 18.5C7.11305 18.5 4.82387 17.5518 3.13604 15.864C1.44821 14.1761 0.5 11.8869 0.5 9.5C0.5 7.11305 1.44821 4.82387 3.13604 3.13604C4.82387 1.44821 7.11305 0.5 9.5 0.5ZM9.5 15.4286C9.92056 15.4286 10.3239 15.2615 10.6213 14.9641C10.9186 14.6667 11.0857 14.2634 11.0857 13.8429C11.0857 13.4223 10.9186 13.019 10.6213 12.7216C10.3239 12.4242 9.92056 12.2571 9.5 12.2571C9.07944 12.2571 8.67611 12.4242 8.37873 12.7216C8.08135 13.019 7.91428 13.4223 7.91428 13.8429C7.91428 14.2634 8.08135 14.6667 8.37873 14.9641C8.67611 15.2615 9.07944 15.4286 9.5 15.4286Z" stroke="black"/>
</svg>
