<svg width="14" height="21" viewBox="0 0 14 21" fill="none" xmlns="http://www.w3.org/2000/svg">
<path d="M4.86742 10.0518L12.8288 2.53174C13.0461 2.3239 13.1685 2.04383 13.1697 1.75171C13.17 1.60839 13.14 1.46646 13.0815 1.33423C13.023 1.202 12.9371 1.08212 12.8288 0.981689L12.1323 0.321777C11.914 0.115681 11.6179 0 11.3093 0C11.0006 0 10.7046 0.115681 10.4862 0.321777L1.0058 9.27173C0.788788 9.47967 0.666801 9.75976 0.666021 10.0518C0.665553 10.1965 0.695322 10.34 0.753631 10.4739C0.81194 10.6077 0.897625 10.7293 1.0058 10.8318L10.4767 19.7717C10.5834 19.8761 10.7113 19.9592 10.8527 20.0159C10.9941 20.0726 11.1462 20.1018 11.2998 20.1018C11.4534 20.1018 11.6054 20.0726 11.7468 20.0159C11.8882 19.9592 12.016 19.8761 12.1228 19.7717L12.8204 19.1118C12.9286 19.0114 13.0146 18.8915 13.0731 18.7593C13.1316 18.627 13.1616 18.4851 13.1612 18.3418C13.1601 18.0497 13.0377 17.7696 12.8204 17.5618L4.86742 10.0518Z" fill="#2C0186"/>
</svg>
