<svg width="22" height="22" viewBox="0 0 22 22" fill="none" xmlns="http://www.w3.org/2000/svg">
<path d="M18.7912 4.09112L14.3349 4.09114V3.03211C14.3349 2.73852 14.0858 2.50073 13.7783 2.50073C13.4708 2.50073 13.2218 2.73852 13.2218 3.03211V4.09087H8.7694V3.03211C8.7694 2.73852 8.52035 2.50073 8.21286 2.50073C7.90536 2.50073 7.65631 2.73852 7.65631 3.03211V4.09087H3.20782C2.59312 4.09087 2.09473 4.56672 2.09473 5.15362V18.438C2.09473 19.0249 2.59312 19.5007 3.20782 19.5007H18.7912C19.4059 19.5007 19.9043 19.0249 19.9043 18.438V5.15362C19.9043 4.56697 19.4059 4.09112 18.7912 4.09112ZM18.7912 18.438H3.20782V5.15362H7.65631V5.68898C7.65631 5.98255 7.90536 6.22035 8.21286 6.22035C8.52035 6.22035 8.7694 5.98255 8.7694 5.68898V5.15389H13.2218V5.68924C13.2218 5.98283 13.4708 6.22062 13.7783 6.22062C14.0858 6.22062 14.3349 5.98283 14.3349 5.68924V5.15389H18.7912V18.438ZM14.8953 10.999H16.0084C16.3156 10.999 16.565 10.7609 16.565 10.4676V9.40486C16.565 9.11155 16.3156 8.87349 16.0084 8.87349H14.8953C14.5881 8.87349 14.3388 9.11155 14.3388 9.40486V10.4676C14.3388 10.7609 14.5881 10.999 14.8953 10.999ZM14.8953 15.2497H16.0084C16.3156 15.2497 16.565 15.0119 16.565 14.7183V13.6556C16.565 13.3623 16.3156 13.1242 16.0084 13.1242H14.8953C14.5881 13.1242 14.3388 13.3623 14.3388 13.6556V14.7183C14.3388 15.0122 14.5881 15.2497 14.8953 15.2497ZM11.556 13.1242H10.4429C10.1357 13.1242 9.88639 13.3623 9.88639 13.6556V14.7183C9.88639 15.0119 10.1357 15.2497 10.4429 15.2497H11.556C11.8633 15.2497 12.1126 15.0119 12.1126 14.7183V13.6556C12.1126 13.3625 11.8633 13.1242 11.556 13.1242ZM11.556 8.87349H10.4429C10.1357 8.87349 9.88639 9.11155 9.88639 9.40486V10.4676C9.88639 10.7609 10.1357 10.999 10.4429 10.999H11.556C11.8633 10.999 12.1126 10.7609 12.1126 10.4676V9.40486C12.1126 9.11128 11.8633 8.87349 11.556 8.87349ZM7.10366 8.87349H5.99056C5.68335 8.87349 5.43401 9.11155 5.43401 9.40486V10.4676C5.43401 10.7609 5.68335 10.999 5.99056 10.999H7.10366C7.41087 10.999 7.6602 10.7609 7.6602 10.4676V9.40486C7.6602 9.11128 7.41087 8.87349 7.10366 8.87349ZM7.10366 13.1242H5.99056C5.68335 13.1242 5.43401 13.3623 5.43401 13.6556V14.7183C5.43401 15.0119 5.68335 15.2497 5.99056 15.2497H7.10366C7.41087 15.2497 7.6602 15.0119 7.6602 14.7183V13.6556C7.6602 13.3625 7.41087 13.1242 7.10366 13.1242Z" fill="white"/>
</svg>
