<svg width="28" height="29" viewBox="0 0 28 29" fill="none" xmlns="http://www.w3.org/2000/svg">
<path d="M14 0.621582C6.258 0.621582 0 6.87958 0 14.6216C0 22.3636 6.258 28.6216 14 28.6216C21.742 28.6216 28 22.3636 28 14.6216C28 6.87958 21.742 0.621582 14 0.621582ZM20.02 20.6416C19.474 21.1876 18.592 21.1876 18.046 20.6416L14 16.5956L9.954 20.6416C9.408 21.1876 8.526 21.1876 7.98 20.6416C7.434 20.0956 7.434 19.2136 7.98 18.6676L12.026 14.6216L7.98 10.5756C7.434 10.0296 7.434 9.14758 7.98 8.60158C8.526 8.05558 9.408 8.05558 9.954 8.60158L14 12.6476L18.046 8.60158C18.592 8.05558 19.474 8.05558 20.02 8.60158C20.566 9.14758 20.566 10.0296 20.02 10.5756L15.974 14.6216L20.02 18.6676C20.552 19.1996 20.552 20.0956 20.02 20.6416Z" fill="#2A0181"/>
</svg>
