<svg width="21" height="12" viewBox="0 0 21 12" fill="none" xmlns="http://www.w3.org/2000/svg">
<path d="M10.895 7.98517L18.415 0.465154C18.5176 0.363144 18.6393 0.282394 18.7732 0.227483C18.907 0.172573 19.0504 0.144512 19.1951 0.145086C19.3384 0.143483 19.4804 0.17101 19.6128 0.226018C19.7452 0.281027 19.8651 0.362437 19.9651 0.465154L20.625 1.12507C20.7294 1.22537 20.8124 1.34578 20.8691 1.47895C20.9258 1.61212 20.9551 1.75535 20.9551 1.90009C20.9551 2.04483 20.9258 2.18818 20.8691 2.32136C20.8124 2.45453 20.7294 2.57481 20.625 2.67512L11.675 11.6351C11.4672 11.84 11.1869 11.955 10.895 11.955C10.6031 11.955 10.3229 11.84 10.115 11.6351L1.17505 2.68512C0.970098 2.47724 0.855225 2.19702 0.855225 1.9051C0.855225 1.61317 0.970098 1.33295 1.17505 1.12507L1.83496 0.475164C1.93437 0.371009 2.05394 0.287984 2.18628 0.231267C2.31862 0.174551 2.461 0.14524 2.60498 0.145086C2.75044 0.145209 2.89435 0.174467 3.02832 0.231145C3.16229 0.287824 3.28363 0.370852 3.38501 0.475164L10.895 7.98517Z" fill="white"/>
</svg>
