<svg width="24" height="25" viewBox="0 0 24 25" fill="none" xmlns="http://www.w3.org/2000/svg">
<path d="M7 17.1418L11.413 17.1268L21.045 7.58681C21.423 7.20881 21.631 6.70681 21.631 6.17281C21.631 5.63881 21.423 5.13681 21.045 4.75881L19.459 3.17281C18.703 2.41681 17.384 2.42081 16.634 3.16981L7 12.7118V17.1418ZM18.045 4.58681L19.634 6.16981L18.037 7.75181L16.451 6.16681L18.045 4.58681ZM9 13.5458L15.03 7.57281L16.616 9.15881L10.587 15.1298L9 15.1348V13.5458Z" fill="#009834"/>
<path d="M5 21.1289H19C20.103 21.1289 21 20.2319 21 19.1289V10.4609L19 12.4609V19.1289H8.158C8.132 19.1289 8.105 19.1389 8.079 19.1389C8.046 19.1389 8.013 19.1299 7.979 19.1289H5V5.12891H11.847L13.847 3.12891H5C3.897 3.12891 3 4.02591 3 5.12891V19.1289C3 20.2319 3.897 21.1289 5 21.1289Z" fill="#009834"/>
</svg>
