<svg width="25" height="23" viewBox="0 0 25 23" fill="none" xmlns="http://www.w3.org/2000/svg">
<g clip-path="url(#clip0_959_2642)">
<path fill-rule="evenodd" clip-rule="evenodd" d="M14.1514 1.91724C14.6405 1.91735 15.114 2.07578 15.4889 2.36478L15.6243 2.47882L20.2223 6.7089C20.5681 7.02709 20.7813 7.44709 20.8243 7.89532L20.8327 8.06399V11.5006H18.7493V9.5839H14.0618C13.6734 9.58389 13.2989 9.45077 13.0114 9.21052C12.7239 8.97027 12.5439 8.6401 12.5066 8.2844L12.4993 8.1464V3.8339H6.24935V19.1672H12.4993V21.0839H6.24935C5.72375 21.0841 5.21751 20.9014 4.83211 20.5726C4.44671 20.2438 4.21064 19.7932 4.17122 19.311L4.16602 19.1672V3.8339C4.16585 3.35035 4.36436 2.88461 4.72174 2.53004C5.07913 2.17548 5.56898 1.95829 6.0931 1.92203L6.24935 1.91724H14.1514ZM19.4858 13.8619L22.4316 16.573C22.6269 16.7527 22.7366 16.9965 22.7366 17.2506C22.7366 17.5047 22.6269 17.7484 22.4316 17.9281L19.4858 20.6383C19.3897 20.7298 19.2748 20.8028 19.1477 20.853C19.0206 20.9033 18.8839 20.9297 18.7456 20.9308C18.6073 20.9319 18.4701 20.9077 18.3421 20.8595C18.2141 20.8113 18.0978 20.7401 18 20.6502C17.9022 20.5602 17.8248 20.4532 17.7724 20.3354C17.7201 20.2176 17.6937 20.0914 17.6949 19.9642C17.6961 19.8369 17.7249 19.7112 17.7795 19.5943C17.834 19.4773 17.9134 19.3716 18.0129 19.2832L19.1806 18.2089H14.5827C14.3064 18.2089 14.0415 18.1079 13.8461 17.9282C13.6508 17.7485 13.541 17.5047 13.541 17.2506C13.541 16.9964 13.6508 16.7526 13.8461 16.5729C14.0415 16.3932 14.3064 16.2922 14.5827 16.2922H19.1806L18.0129 15.2179C17.8174 15.0382 17.7076 14.7945 17.7075 14.5403C17.7074 14.286 17.817 14.0422 18.0124 13.8624C18.2077 13.6826 18.4727 13.5815 18.749 13.5814C19.0253 13.5813 19.2903 13.6822 19.4858 13.8619ZM14.5827 4.23065V7.66724H18.3181L14.5827 4.23065Z" fill="white"/>
</g>
<defs>
<clipPath id="clip0_959_2642">
<rect width="25" height="23" fill="white"/>
</clipPath>
</defs>
</svg>
