<svg width="37" height="31" viewBox="0 0 37 31" fill="none" xmlns="http://www.w3.org/2000/svg">
<path d="M33.3457 25.5294C34.062 25.5298 34.7507 25.8003 35.2692 26.2851C35.7876 26.7699 36.096 27.4316 36.1304 28.1333C36.1648 28.8349 35.9227 29.5226 35.4541 30.054C34.9855 30.5853 34.3264 30.9195 33.6134 30.9872L33.3457 31H3.59269C2.87635 30.9997 2.18761 30.7291 1.66918 30.2443C1.15075 29.7596 0.842373 29.0978 0.807949 28.3962C0.773524 27.6945 1.01569 27.0068 1.48427 26.4755C1.95285 25.9441 2.61192 25.61 3.32491 25.5422L3.59269 25.5294H33.3457ZM33.3457 12.7647C34.0854 12.7647 34.7949 13.0529 35.318 13.5659C35.8411 14.0788 36.135 14.7746 36.135 15.5C36.135 16.2254 35.8411 16.9212 35.318 17.4341C34.7949 17.9471 34.0854 18.2353 33.3457 18.2353H3.59269C2.85291 18.2353 2.14343 17.9471 1.62032 17.4341C1.09722 16.9212 0.803345 16.2254 0.803345 15.5C0.803345 14.7746 1.09722 14.0788 1.62032 13.5659C2.14343 13.0529 2.85291 12.7647 3.59269 12.7647H33.3457ZM33.3457 0C34.0854 0 34.7949 0.288182 35.318 0.801149C35.8411 1.31412 36.135 2.00985 36.135 2.73529C36.135 3.46074 35.8411 4.15647 35.318 4.66944C34.7949 5.18241 34.0854 5.47059 33.3457 5.47059H3.59269C2.85291 5.47059 2.14343 5.18241 1.62032 4.66944C1.09722 4.15647 0.803345 3.46074 0.803345 2.73529C0.803345 2.00985 1.09722 1.31412 1.62032 0.801149C2.14343 0.288182 2.85291 0 3.59269 0H33.3457Z" fill="white"/>
</svg>
