<svg width="150" height="150" viewBox="0 0 150 150" fill="none" xmlns="http://www.w3.org/2000/svg">
<path d="M75 65.6251C76.3184 65.6251 77.5391 65.8692 78.6621 66.3575C79.7852 66.8458 80.7617 67.505 81.5918 68.335C82.4219 69.1651 83.1055 70.1661 83.6426 71.338C84.1797 72.5098 84.4238 73.7305 84.375 75.0001C84.375 76.3184 84.1309 77.5391 83.6426 78.6622C83.1543 79.7852 82.4951 80.7618 81.665 81.5919C80.835 82.422 79.834 83.1055 78.6621 83.6427C77.4902 84.1798 76.2695 84.4239 75 84.3751C73.6816 84.3751 72.4609 84.1309 71.3379 83.6427C70.2148 83.1544 69.2383 82.4952 68.4082 81.6651C67.5781 80.835 66.8945 79.8341 66.3574 78.6622C65.8203 77.4903 65.5762 76.2696 65.625 75.0001C65.625 73.6817 65.8691 72.461 66.3574 71.338C66.8457 70.2149 67.5049 69.2384 68.335 68.4083C69.165 67.5782 70.166 66.8946 71.3379 66.3575C72.5098 65.8204 73.7305 65.5762 75 65.6251ZM117.188 84.3751C121.729 84.3751 125.977 85.2296 129.932 86.9386C133.887 88.6475 137.378 90.9913 140.405 93.9698C143.433 96.9483 145.776 100.415 147.437 104.37C149.097 108.325 149.951 112.598 150 117.188C150 121.729 149.146 125.977 147.437 129.932C145.728 133.887 143.384 137.378 140.405 140.405C137.427 143.433 133.96 145.776 130.005 147.437C126.05 149.097 121.777 149.951 117.188 150C112.646 150 108.398 149.146 104.443 147.437C100.488 145.728 96.9971 143.384 93.9697 140.405C90.9424 137.427 88.5986 133.96 86.9385 130.005C85.2783 126.05 84.4238 121.777 84.375 117.188C84.375 112.647 85.2295 108.399 86.9385 104.443C88.6475 100.488 90.9912 96.9972 93.9697 93.9698C96.9482 90.9425 100.415 88.5987 104.37 86.9386C108.325 85.2784 112.598 84.4239 117.188 84.3751ZM93.75 117.188C93.75 120.41 94.3604 123.438 95.5811 126.27C96.8018 129.102 98.4619 131.592 100.562 133.74C102.661 135.889 105.151 137.573 108.032 138.794C110.913 140.015 113.965 140.625 117.188 140.625C119.482 140.625 121.729 140.308 123.926 139.673C126.123 139.038 128.174 138.062 130.078 136.743L97.6318 104.297C96.3623 106.201 95.4102 108.252 94.7754 110.449C94.1406 112.647 93.7988 114.893 93.75 117.188ZM136.743 130.078C138.013 128.174 138.965 126.123 139.6 123.926C140.234 121.729 140.576 119.482 140.625 117.188C140.625 113.965 140.015 110.938 138.794 108.106C137.573 105.274 135.889 102.808 133.74 100.708C131.592 98.6085 129.102 96.9239 126.27 95.6544C123.438 94.3848 120.41 93.7501 117.188 93.7501C114.893 93.7501 112.646 94.0675 110.449 94.7022C108.252 95.337 106.201 96.3136 104.297 97.6319L136.743 130.078ZM46.875 75.0001C46.875 78.6134 47.5098 82.0069 48.7793 85.1807C50.0488 88.3546 51.8066 91.211 54.0527 93.7501C56.2988 96.2891 58.9355 98.3399 61.9629 99.9024C64.9902 101.465 68.3105 102.49 71.9238 102.979C72.8516 103.076 73.7793 103.125 74.707 103.125C75.6348 103.125 76.5869 103.125 77.5635 103.125C76.4893 106.201 75.7812 109.326 75.4395 112.5C68.0176 112.5 60.8398 111.572 53.9062 109.717C46.9727 107.861 40.3076 105.249 33.9111 101.88C27.5146 98.5108 21.4844 94.5557 15.8203 90.0147C10.1562 85.4737 4.88281 80.4688 0 75.0001C4.73633 69.6778 9.93652 64.7218 15.6006 60.1319C21.2646 55.5421 27.2705 51.587 33.6182 48.2667C39.9658 44.9464 46.6309 42.3096 53.6133 40.3565C60.5957 38.4034 67.7246 37.4512 75 37.5001C82.4707 37.5001 89.6973 38.379 96.6797 40.1368C103.662 41.8946 110.303 44.4337 116.602 47.754C122.9 51.0743 128.882 55.005 134.546 59.546C140.21 64.087 145.361 69.2384 150 75.0001L143.335 81.6651L142.749 81.0059C137.476 74.8536 131.812 69.3848 125.757 64.5997C119.702 59.8145 112.866 55.8839 105.249 52.8077C107.593 56.0303 109.375 59.546 110.596 63.3546C111.816 67.1632 112.451 71.045 112.5 75.0001V75.4395C109.326 75.7813 106.201 76.4893 103.125 77.5636V75.0001C103.125 71.1427 102.393 67.505 100.928 64.087C99.4629 60.669 97.4365 57.6905 94.8486 55.1514C92.2607 52.6124 89.2822 50.6104 85.9131 49.1456C82.5439 47.6807 78.9062 46.9239 75 46.8751C71.1426 46.8751 67.5049 47.6075 64.0869 49.0723C60.6689 50.5372 57.6904 52.5636 55.1514 55.1514C52.6123 57.7393 50.6104 60.7178 49.1455 64.087C47.6807 67.4561 46.9238 71.0938 46.875 75.0001ZM44.165 96.3136C41.9678 93.1886 40.3076 89.8194 39.1846 86.2061C38.0615 82.5929 37.5 78.8575 37.5 75.0001C37.5 71.1915 38.0615 67.4805 39.1846 63.8673C40.3076 60.254 41.9678 56.8604 44.165 53.6866C38.3057 56.2257 32.7881 59.3018 27.6123 62.9151C22.4365 66.5284 17.5537 70.5567 12.9639 75.0001C17.5537 79.4434 22.4365 83.4718 27.6123 87.085C32.7881 90.6983 38.3057 93.7745 44.165 96.3136Z" fill="#2C0186"/>
</svg>
