<svg width="35" height="35" viewBox="0 0 35 35" fill="none" xmlns="http://www.w3.org/2000/svg">
<rect width="35" height="35" rx="5" fill="white"/>
<path d="M18 6C16.7913 6 15.6098 6.35498 14.6048 7.02005C13.5999 7.68512 12.8166 8.63042 12.3541 9.73639C11.8915 10.8424 11.7705 12.0593 12.0063 13.2334C12.2421 14.4075 12.8241 15.486 13.6788 16.3325C14.5334 17.179 15.6223 17.7554 16.8078 17.989C17.9932 18.2225 19.222 18.1026 20.3386 17.6445C21.4553 17.1864 22.4097 16.4106 23.0812 15.4153C23.7527 14.4199 24.1111 13.2497 24.1111 12.0526C24.1111 10.4474 23.4673 8.90786 22.3212 7.77277C21.1752 6.63769 19.6208 6 18 6ZM18 15.6842C17.2748 15.6842 16.5659 15.4712 15.9629 15.0722C15.3599 14.6731 14.89 14.106 14.6124 13.4424C14.3349 12.7788 14.2623 12.0486 14.4038 11.3441C14.5453 10.6397 14.8945 9.9926 15.4073 9.48472C15.9201 8.97683 16.5734 8.63096 17.2847 8.49083C17.9959 8.35071 18.7332 8.42262 19.4032 8.69749C20.0732 8.97236 20.6458 9.43782 21.0487 10.035C21.4516 10.6322 21.6667 11.3344 21.6667 12.0526C21.6667 13.0158 21.2804 13.9395 20.5927 14.6205C19.9051 15.3016 18.9725 15.6842 18 15.6842ZM29 29V27.7895C29 25.5421 28.0986 23.3868 26.4941 21.7977C24.8897 20.2086 22.7135 19.3158 20.4444 19.3158H15.5556C13.2865 19.3158 11.1103 20.2086 9.50586 21.7977C7.90139 23.3868 7 25.5421 7 27.7895V29H9.44444V27.7895C9.44444 26.1842 10.0883 24.6447 11.2343 23.5096C12.3804 22.3745 13.9348 21.7368 15.5556 21.7368H20.4444C22.0652 21.7368 23.6196 22.3745 24.7657 23.5096C25.9117 24.6447 26.5556 26.1842 26.5556 27.7895V29H29Z" fill="black"/>
</svg>
