<svg width="69" height="65" viewBox="0 0 69 65" fill="none" xmlns="http://www.w3.org/2000/svg">
<path fill-rule="evenodd" clip-rule="evenodd" d="M9.18158 33.1063L0 17.8182L10.7261 0.041681L32.1032 0L41.2848 15.2881L58.4105 15.2952L69 32.9276L58.2127 50.6022L41.1479 50.6964L32.5306 64.8565L11.2146 65L0.625172 47.3677L9.18158 33.1063ZM54.6636 44.69L61.8759 32.941L54.7751 21.1176L40.5848 21.2476L34.1366 31.893L41.8496 44.7357L54.6636 44.69ZM28.9815 58.9442L35.4296 48.2989L27.7167 35.4562L14.9027 35.5019L7.69038 47.2509L14.7912 59.0743L28.9815 58.9442ZM28.3559 29.3941L35.5682 17.6451L28.4674 5.82168L14.2771 5.95173L7.0648 17.7007L14.1656 29.5241L28.3559 29.3941Z" fill="white"/>
</svg>
