<svg width="18" height="18" viewBox="0 0 18 18" fill="none" xmlns="http://www.w3.org/2000/svg">
<g clip-path="url(#clip0_959_14586)">
<path fill-rule="evenodd" clip-rule="evenodd" d="M10.1895 1.91699C10.5417 1.91707 10.8826 2.03417 11.1525 2.24778L11.25 2.33208L14.5605 5.45866C14.8095 5.69384 14.963 6.00427 14.994 6.33558L15 6.46024V9.00033H13.5V7.58366H10.125C9.84534 7.58365 9.57571 7.48526 9.36869 7.30768C9.16166 7.1301 9.0321 6.88606 9.00525 6.62316L9 6.52116V3.33366H4.5V14.667H9V16.0837H4.5C4.12157 16.0838 3.75708 15.9488 3.47959 15.7058C3.2021 15.4627 3.03213 15.1296 3.00375 14.7732L3 14.667V3.33366C2.99988 2.97625 3.1428 2.63201 3.40012 2.36994C3.65744 2.10787 4.01013 1.94734 4.3875 1.92053L4.5 1.91699H10.1895ZM14.0302 10.7457L16.1512 12.7495C16.2919 12.8824 16.3708 13.0625 16.3708 13.2503C16.3708 13.4382 16.2919 13.6183 16.1512 13.7511L14.0302 15.7543C13.9611 15.8219 13.8783 15.8759 13.7868 15.913C13.6953 15.9501 13.5969 15.9697 13.4973 15.9705C13.3977 15.9713 13.299 15.9534 13.2068 15.9178C13.1146 15.8822 13.0309 15.8296 12.9605 15.7631C12.89 15.6966 12.8343 15.6175 12.7966 15.5304C12.7589 15.4434 12.7399 15.3501 12.7408 15.256C12.7417 15.162 12.7624 15.069 12.8017 14.9826C12.841 14.8962 12.8981 14.818 12.9697 14.7527L13.8105 13.9587H10.5C10.3011 13.9587 10.1103 13.884 9.96967 13.7512C9.82902 13.6184 9.75 13.4382 9.75 13.2503C9.75 13.0625 9.82902 12.8823 9.96967 12.7495C10.1103 12.6166 10.3011 12.542 10.5 12.542H13.8105L12.9697 11.748C12.829 11.6151 12.7499 11.435 12.7498 11.2471C12.7498 11.0592 12.8287 10.8789 12.9694 10.746C13.11 10.6131 13.3008 10.5384 13.4997 10.5383C13.6987 10.5383 13.8895 10.6128 14.0302 10.7457ZM10.5 3.62691V6.16699H13.1895L10.5 3.62691Z" fill="white"/>
</g>
<defs>
<clipPath id="clip0_959_14586">
<rect width="18" height="17" fill="white" transform="translate(0 0.5)"/>
</clipPath>
</defs>
</svg>
