<svg width="54" height="55" viewBox="0 0 54 55" fill="none" xmlns="http://www.w3.org/2000/svg">
<path d="M32.755 26.8921L40.1758 20.2825V33.4262L32.755 26.8921ZM23.1928 28.0114L25.7987 30.3304C26.2077 30.6866 26.7409 30.9018 27.3236 30.9018H27.3442H27.3598C27.9438 30.9018 28.477 30.6854 28.8908 30.3267L28.8872 30.3292L31.4931 28.0101L39.4145 34.9845H15.275L23.1928 28.0114ZM15.2641 18.7155H39.429L27.8219 29.0503C27.6964 29.1517 27.5372 29.2136 27.3635 29.2136C27.3574 29.2136 27.3526 29.2136 27.3466 29.2136C27.3417 29.2136 27.3369 29.2136 27.3309 29.2136C27.1572 29.2136 26.9967 29.1517 26.8712 29.0491L26.8724 29.0503L15.2641 18.7155ZM14.5149 20.2813L21.9345 26.8908L14.5149 33.4212V20.2813ZM40.5739 17.2622C40.2844 17.1138 39.9441 17.0272 39.5834 17.0272H15.1109C14.749 17.0285 14.4064 17.115 14.1036 17.2709L14.1168 17.2647C13.3712 17.6469 12.8682 18.4236 12.8682 19.3215V19.3265V34.376C12.8694 35.645 13.8731 36.6728 15.1097 36.674H39.5798C40.8176 36.6728 41.8201 35.6438 41.8214 34.376V19.3265C41.8214 19.3252 41.8214 19.324 41.8214 19.3215C41.8214 18.4223 41.3159 17.6432 40.5799 17.2684L40.5667 17.2622H40.5739Z" fill="white"/>
<path d="M53.5804 27.4821C53.5804 42.4354 41.673 54.5446 27 54.5446C12.327 54.5446 0.419643 42.4354 0.419643 27.4821C0.419643 12.5289 12.327 0.419643 27 0.419643C41.673 0.419643 53.5804 12.5289 53.5804 27.4821Z" stroke="white" stroke-width="0.839286"/>
</svg>
