<svg width="21" height="21" viewBox="0 0 21 21" fill="none" xmlns="http://www.w3.org/2000/svg">
<g id="tabler:search">
<path id="Vector" d="M18.0062 18.1012L12.9387 13.0337M2.80371 8.81076C2.80371 9.58715 2.95663 10.3559 3.25374 11.0732C3.55085 11.7905 3.98633 12.4423 4.53532 12.9912C5.08431 13.5402 5.73605 13.9757 6.45334 14.2728C7.17062 14.5699 7.93941 14.7228 8.71579 14.7228C9.49218 14.7228 10.261 14.5699 10.9783 14.2728C11.6955 13.9757 12.3473 13.5402 12.8963 12.9912C13.4453 12.4423 13.8807 11.7905 14.1778 11.0732C14.475 10.3559 14.6279 9.58715 14.6279 8.81076C14.6279 8.03438 14.475 7.2656 14.1778 6.54831C13.8807 5.83102 13.4453 5.17928 12.8963 4.63029C12.3473 4.0813 11.6955 3.64582 10.9783 3.34871C10.261 3.0516 9.49218 2.89868 8.71579 2.89868C7.93941 2.89868 7.17062 3.0516 6.45334 3.34871C5.73605 3.64582 5.08431 4.0813 4.53532 4.63029C3.98633 5.17928 3.55085 5.83102 3.25374 6.54831C2.95663 7.2656 2.80371 8.03438 2.80371 8.81076Z" stroke="#444444" stroke-width="1.61" stroke-linecap="round" stroke-linejoin="round"/>
</g>
</svg>
