<svg width="18" height="19" viewBox="0 0 18 19" fill="none" xmlns="http://www.w3.org/2000/svg">
<path d="M9.0001 0.5C9.76294 0.499952 10.4969 0.78227 11.0514 1.28904C11.6059 1.79581 11.9388 2.48862 11.982 3.22533L11.9866 3.38889H16.811C16.9856 3.38894 17.1537 3.45311 17.2813 3.56842C17.4089 3.68373 17.4865 3.8416 17.4984 4.01012C17.5103 4.17863 17.4556 4.34524 17.3454 4.47627C17.2352 4.60729 17.0777 4.69298 16.9047 4.716L16.811 4.72222H16.0795L14.9033 16.2956C14.8444 16.8725 14.5753 17.4105 14.1443 17.8133C13.7132 18.2161 13.1481 18.4576 12.5499 18.4947L12.3882 18.5H5.61201C5.01237 18.5 4.43228 18.2937 3.9754 17.918C3.51852 17.5424 3.21463 17.0218 3.11803 16.4493L3.0969 16.2947L1.91975 4.72222H1.1892C1.02265 4.72222 0.861744 4.66387 0.736229 4.55798C0.610713 4.4521 0.529083 4.30583 0.506432 4.14622L0.5 4.05556C0.500007 3.89446 0.560321 3.73881 0.669788 3.6174C0.779255 3.49598 0.93047 3.41702 1.09547 3.39511L1.1892 3.38889H6.01358C6.01358 2.62271 6.32823 1.88791 6.88831 1.34614C7.4484 0.804364 8.20803 0.5 9.0001 0.5ZM14.6947 4.72222H3.30458L4.46886 16.164C4.49464 16.4193 4.61095 16.6581 4.79804 16.8399C4.98514 17.0217 5.23149 17.1353 5.49531 17.1613L5.61201 17.1667H12.3882C12.9396 17.1667 13.4073 16.7889 13.5139 16.276L13.5323 16.164L14.6938 4.72222H14.6947ZM10.6082 7.16667C10.7748 7.16667 10.9357 7.22502 11.0612 7.3309C11.1867 7.43679 11.2683 7.58306 11.291 7.74267L11.2974 7.83333V14.0556C11.2974 14.2245 11.231 14.3871 11.1118 14.5105C10.9926 14.6339 10.8294 14.709 10.6552 14.7205C10.481 14.732 10.3088 14.6791 10.1733 14.5725C10.0378 14.4659 9.94927 14.3136 9.92547 14.1462L9.91904 14.0556V7.83333C9.91904 7.65652 9.99165 7.48695 10.1209 7.36193C10.2501 7.23691 10.4254 7.16667 10.6082 7.16667ZM7.39198 7.16667C7.55852 7.16667 7.71943 7.22502 7.84495 7.3309C7.97046 7.43679 8.05209 7.58306 8.07474 7.74267L8.08117 7.83333V14.0556C8.08112 14.2245 8.01479 14.3871 7.89558 14.5105C7.77636 14.6339 7.61316 14.709 7.43895 14.7205C7.26474 14.732 7.0925 14.6791 6.95705 14.5725C6.82159 14.4659 6.73301 14.3136 6.70921 14.1462L6.70278 14.0556V7.83333C6.70278 7.65652 6.77539 7.48695 6.90464 7.36193C7.03389 7.23691 7.20919 7.16667 7.39198 7.16667ZM9.0001 1.83333C8.59652 1.83335 8.2077 1.98015 7.91081 2.2446C7.61393 2.50906 7.4307 2.87182 7.39749 3.26089L7.39198 3.38889H10.6082C10.6082 2.97633 10.4388 2.58067 10.1372 2.28895C9.83564 1.99722 9.42661 1.83333 9.0001 1.83333Z" fill="#E21919"/>
</svg>
