<svg width="20" height="12" viewBox="0 0 20 12" fill="none" xmlns="http://www.w3.org/2000/svg">
<path d="M9.60074 3.45987C10.1195 3.45987 10.6331 3.56204 11.1124 3.76055C11.5916 3.95907 12.0271 4.25003 12.3939 4.61683C12.7607 4.98363 13.0517 5.41909 13.2502 5.89834C13.4487 6.37759 13.5509 6.89125 13.5509 7.40999C13.5509 7.92872 13.4487 8.44238 13.2502 8.92163C13.0517 9.40088 12.7607 9.83634 12.3939 10.2031C12.0271 10.5699 11.5916 10.8609 11.1124 11.0594C10.6331 11.2579 10.1195 11.3601 9.60074 11.3601C8.55311 11.3601 7.54838 10.9439 6.80759 10.2031C6.0668 9.46235 5.65063 8.45762 5.65063 7.40999C5.65063 6.36235 6.0668 5.35762 6.80759 4.61683C7.54838 3.87604 8.55311 3.45987 9.60074 3.45987ZM9.60074 0C14.1566 0 18.0875 3.11033 19.1791 7.46923C19.2052 7.56441 19.212 7.66385 19.1991 7.7617C19.1862 7.85955 19.1539 7.95384 19.1041 8.03902C19.0543 8.12421 18.9879 8.19858 18.9089 8.25775C18.8299 8.31693 18.7399 8.35972 18.6441 8.38361C18.5484 8.4075 18.4488 8.41201 18.3513 8.39687C18.2538 8.38173 18.1602 8.34725 18.0762 8.29546C17.9922 8.24366 17.9194 8.1756 17.8621 8.09526C17.8048 8.01493 17.7641 7.92394 17.7424 7.82766C17.2841 6.01519 16.2341 4.40746 14.7588 3.25919C13.2835 2.11091 11.4672 1.48775 9.59769 1.48843C7.72818 1.48911 5.91235 2.11359 4.43787 3.26294C2.96339 4.41229 1.91458 6.02078 1.45761 7.83358C1.40875 8.02287 1.28703 8.18516 1.11899 8.28506C0.950951 8.38496 0.750228 8.41436 0.560597 8.36685C0.370966 8.31935 0.207811 8.19879 0.106715 8.03147C0.00561917 7.86415 -0.0252164 7.66364 0.0209337 7.47367C0.556643 5.33859 1.7902 3.44364 3.52577 2.08963C5.26135 0.735625 7.39948 0.000163501 9.60074 0Z" fill="#333333"/>
</svg>
