<svg width="31" height="31" viewBox="0 0 31 31" fill="none" xmlns="http://www.w3.org/2000/svg">
<path d="M15.4996 16.3267C15.0383 16.3285 14.5903 16.4818 14.2246 16.7629C13.8588 17.0441 13.5955 17.4376 13.4752 17.8829C13.3549 18.3283 13.3842 18.8008 13.5586 19.2279C13.7329 19.655 14.0428 20.013 14.4404 20.2469V23.25H16.5846V20.2469C16.8992 20.0608 17.1603 19.7965 17.3425 19.4796C17.5247 19.1627 17.6218 18.8041 17.6244 18.4386V18.4386C17.6244 18.1601 17.5693 17.8845 17.4624 17.6274C17.3554 17.3703 17.1987 17.1369 17.0012 16.9407C16.8038 16.7444 16.5694 16.5891 16.3117 16.4837C16.054 16.3784 15.778 16.325 15.4996 16.3267V16.3267Z" stroke="black" stroke-width="1.5" stroke-linecap="round" stroke-linejoin="round"/>
<path d="M23.4376 11.4766H7.5566C6.01573 11.4766 4.7666 12.7257 4.7666 14.2666V25.3039C4.7666 26.8447 6.01573 28.0939 7.5566 28.0939H23.4376C24.9785 28.0939 26.2276 26.8447 26.2276 25.3039V14.2666C26.2276 12.7257 24.9785 11.4766 23.4376 11.4766Z" stroke="black" stroke-width="2" stroke-linecap="round" stroke-linejoin="round"/>
<path d="M8.62207 11.4765V9.79083C8.62207 7.96493 9.34741 6.21381 10.6385 4.9227C11.9296 3.63159 13.6807 2.90625 15.5067 2.90625C17.3326 2.90625 19.0837 3.63159 20.3748 4.9227C21.6659 6.21381 22.3912 7.96493 22.3912 9.79083V11.4765" stroke="black" stroke-width="2" stroke-linecap="round" stroke-linejoin="round"/>
</svg>
