<svg width="100" height="100" viewBox="0 0 100 100" fill="none" xmlns="http://www.w3.org/2000/svg">
<circle cx="50" cy="50" r="50" fill="white"/>
<g clip-path="url(#clip0_1434_6)">
<path d="M68.3823 32.6174C68.6841 32.3094 69.0444 32.0647 69.442 31.8976C69.8397 31.7306 70.2666 31.6445 70.6979 31.6445C71.1291 31.6445 71.5561 31.7306 71.9537 31.8976C72.3513 32.0647 72.7116 32.3094 73.0135 32.6174C74.2785 33.8957 74.2962 35.9614 73.0577 37.2618L46.9028 68.1806C46.6058 68.5067 46.2454 68.7688 45.8437 68.9508C45.442 69.1329 45.0074 69.231 44.5664 69.2393C44.1254 69.2476 43.6874 69.1658 43.2792 68.999C42.8709 68.8322 42.5009 68.5838 42.192 68.2691L26.2769 52.1418C25.6632 51.5158 25.3193 50.6741 25.3193 49.7974C25.3193 48.9208 25.6632 48.079 26.2769 47.4531C26.5788 47.1451 26.9391 46.9004 27.3367 46.7333C27.7343 46.5663 28.1613 46.4803 28.5925 46.4803C29.0238 46.4803 29.4508 46.5663 29.8484 46.7333C30.246 46.9004 30.6063 47.1451 30.9081 47.4531L44.408 61.1343L68.2938 32.7147C68.3213 32.6805 68.3509 32.648 68.3823 32.6174Z" fill="#2C0187"/>
</g>
<defs>
<clipPath id="clip0_1434_6">
<rect width="48.1857" height="37.6451" fill="white" transform="translate(25.5996 31.6211)"/>
</clipPath>
</defs>
</svg>
