<svg width="18" height="21" viewBox="0 0 18 21" fill="none" xmlns="http://www.w3.org/2000/svg">
<path d="M5 12.8375C4.71667 12.8375 4.47933 12.7415 4.288 12.5495C4.09667 12.3575 4.00067 12.1202 4 11.8375C3.99933 11.5549 4.09533 11.3175 4.288 11.1255C4.48067 10.9335 4.718 10.8375 5 10.8375C5.282 10.8375 5.51967 10.9335 5.713 11.1255C5.90633 11.3175 6.002 11.5549 6 11.8375C5.998 12.1202 5.902 12.3579 5.712 12.5505C5.522 12.7432 5.28467 12.8389 5 12.8375ZM9 12.8375C8.71667 12.8375 8.47933 12.7415 8.288 12.5495C8.09667 12.3575 8.00067 12.1202 8 11.8375C7.99933 11.5549 8.09533 11.3175 8.288 11.1255C8.48067 10.9335 8.718 10.8375 9 10.8375C9.282 10.8375 9.51967 10.9335 9.713 11.1255C9.90633 11.3175 10.002 11.5549 10 11.8375C9.998 12.1202 9.902 12.3579 9.712 12.5505C9.522 12.7432 9.28467 12.8389 9 12.8375ZM13 12.8375C12.7167 12.8375 12.4793 12.7415 12.288 12.5495C12.0967 12.3575 12.0007 12.1202 12 11.8375C11.9993 11.5549 12.0953 11.3175 12.288 11.1255C12.4807 10.9335 12.718 10.8375 13 10.8375C13.282 10.8375 13.5197 10.9335 13.713 11.1255C13.9063 11.3175 14.002 11.5549 14 11.8375C13.998 12.1202 13.902 12.3579 13.712 12.5505C13.522 12.7432 13.2847 12.8389 13 12.8375ZM2 20.8375C1.45 20.8375 0.979333 20.6419 0.588 20.2505C0.196667 19.8592 0.000666667 19.3882 0 18.8375V4.83752C0 4.28752 0.196 3.81686 0.588 3.42552C0.98 3.03419 1.45067 2.83819 2 2.83752H3V0.837524H5V2.83752H13V0.837524H15V2.83752H16C16.55 2.83752 17.021 3.03352 17.413 3.42552C17.805 3.81752 18.0007 4.28819 18 4.83752V18.8375C18 19.3875 17.8043 19.8585 17.413 20.2505C17.0217 20.6425 16.5507 20.8382 16 20.8375H2ZM2 18.8375H16V8.83752H2V18.8375Z" fill="white"/>
</svg>
